<svg id="Capa_1" data-name="Capa 1" xmlns="http://www.w3.org/2000/svg" viewBox="0 0 261.15 164.39"><defs><style>.cls-1{fill:#e80f81;}</style></defs><path d="M198.34,137h5.32a11.18,11.18,0,0,1,4.34,4c2.77,4.16,11,17,14,20s11,4,16-2,8-12,12-18c.95-1.42,3-4.13,5.5-4.06s5.65.06,5.65.06Z"/><path class="cls-1" d="M228.75,164.39a10.77,10.77,0,0,1-7.46-2.68c-2.57-2.58-8.68-11.88-12.33-17.44l-1.79-2.72a10.88,10.88,0,0,0-3.74-3.55h-5.09v-2h5.52l.19.08a12.12,12.12,0,0,1,4.78,4.37c.47.69,1.08,1.63,1.8,2.72,3.37,5.14,9.65,14.7,12.08,17.12a9,9,0,0,0,6.54,2.08,10.93,10.93,0,0,0,8-4,96.1,96.1,0,0,0,8.14-11.88c1.21-2,2.45-4,3.8-6,2-3,4.17-4.55,6.36-4.51,2.45.06,5.59.06,5.62.06v2s-3.19,0-5.68-.06c-1.42-.05-3.06,1.25-4.64,3.61-1.32,2-2.56,4-3.75,6a98.3,98.3,0,0,1-8.31,12.12,12.93,12.93,0,0,1-9.43,4.73Z"/><path class="cls-1" d="M55.75,164.39a10.77,10.77,0,0,1-7.46-2.68c-2.57-2.58-8.68-11.88-12.33-17.44l-1.79-2.72A10.88,10.88,0,0,0,30.43,138H12.66C4.5,138,0,134.57,0,128.34V12.66A12.68,12.68,0,0,1,12.66,0H152.34A12.68,12.68,0,0,1,165,12.66V128.34c0,6.23-4.5,9.66-12.66,9.66H88.15s-3.19,0-5.68-.06c-1.41-.05-3.06,1.25-4.64,3.61-1.32,2-2.56,4-3.75,6a98.3,98.3,0,0,1-8.31,12.12,12.93,12.93,0,0,1-9.43,4.73ZM12.66,2A10.67,10.67,0,0,0,2,12.66V128.34C2,133.42,5.59,136,12.66,136h18.2l.19.08a12.12,12.12,0,0,1,4.78,4.37c.47.69,1.08,1.63,1.8,2.72,3.37,5.14,9.65,14.7,12.08,17.12a9,9,0,0,0,6.54,2.08,10.93,10.93,0,0,0,8-4,96.1,96.1,0,0,0,8.14-11.88c1.21-2,2.45-4,3.8-6,2-3,4.16-4.55,6.36-4.51,2.45.06,5.59.06,5.62.06h64.19c7.07,0,10.66-2.58,10.66-7.66V12.66A10.67,10.67,0,0,0,152.34,2Z"/></svg>