<svg width="923" height="925" viewBox="0 0 923 925" fill="none" xmlns="http://www.w3.org/2000/svg">
<path d="M461.5 922.555C439.329 922.555 418.979 911.378 407.057 892.661L333.361 777.027C328.565 769.516 320.401 765.028 311.504 765.028H67.05C31.4303 765.028 2.44702 736.004 2.44702 700.321V-89.8486C2.44702 -125.532 31.4303 -154.555 67.05 -154.555H855.96C891.579 -154.555 920.563 -125.532 920.563 -89.8486V700.331C920.563 736.014 891.589 765.038 855.96 765.038H611.506C602.608 765.038 594.445 769.526 589.658 777.036L515.952 892.671C504.03 911.378 483.671 922.555 461.5 922.555Z" stroke="#D60A70" stroke-width="5" stroke-miterlimit="10"/>
</svg>
