<svg width="164" height="164" viewBox="0 0 164 164" fill="none" xmlns="http://www.w3.org/2000/svg">
<path d="M55.7269 162.966C51.8207 162.966 48.241 161.29 46.1488 158.467L33.1725 141.083C32.3259 139.955 30.8868 139.283 29.3267 139.283H12.5772C6.31281 139.283 1.20935 134.919 1.20935 129.552V10.7658C1.20935 5.39841 6.31281 1.03418 12.5772 1.03418H151.423C157.687 1.03418 162.791 5.39841 162.791 10.7658V129.562C162.791 134.929 157.687 139.293 151.423 139.293H82.127C80.5669 139.293 79.1278 139.966 78.2812 141.093L65.3049 158.477C63.2127 161.29 59.6331 162.966 55.7269 162.966Z" stroke="#E80F81" stroke-width="2" stroke-miterlimit="10"/>
</svg>
