<?xml version="1.0" encoding="UTF-8"?><svg xmlns="http://www.w3.org/2000/svg" xmlns:xlink="http://www.w3.org/1999/xlink" viewBox="0 0 766.18 418"><defs><style>.e,.f{fill:none;}.f{stroke:#d60a70;stroke-miterlimit:10;stroke-width:5px;}.g{clip-path:url(#d);}</style><clipPath id="d"><rect class="e" x="66.18" width="700" height="418"/></clipPath></defs><g id="a"/><g id="b"><g id="c"><g class="g"><path class="f" d="M757.53,210c0,9.56-4.82,18.34-12.91,23.48l-49.92,31.79c-3.24,2.07-5.18,5.59-5.18,9.43v105.44c0,15.36-12.53,27.86-27.94,27.86H30.44c-15.41,0-27.94-12.5-27.94-27.86V39.86c0-15.37,12.53-27.86,27.94-27.86H661.59c15.41,0,27.94,12.5,27.94,27.86v105.44c0,3.84,1.94,7.36,5.18,9.42l49.92,31.79c8.08,5.14,12.91,13.92,12.91,23.49Z"/></g></g></g></svg>