<svg width="1046" height="674" viewBox="0 0 1046 674" fill="none" xmlns="http://www.w3.org/2000/svg">
<path d="M1043 312.003C1043 326.927 1035.47 340.625 1022.86 348.65L944.967 398.256C939.908 401.484 936.885 406.979 936.885 412.968L936.885 627.515C936.885 651.491 917.333 671 893.296 671L-51.4117 671C-75.4489 671 -95 651.491 -95 627.515L-95 46.4854C-95 22.5091 -75.4488 2.99994 -51.4116 2.99994L893.303 2.9999C917.34 2.99989 936.891 22.5025 936.891 46.4853L936.891 211.032C936.891 217.021 939.915 222.516 944.974 225.738L1022.87 275.35C1035.47 283.375 1043 297.08 1043 312.003Z" fill="black" fill-opacity="0.15" stroke="#D60A70" stroke-width="5" stroke-miterlimit="10"/>
</svg>
