<svg width="57" height="29" viewBox="0 0 57 29" fill="none" xmlns="http://www.w3.org/2000/svg">
<path d="M56 4C55 4 53.5 4.5 52.62 5.79947L39.6437 23.184C37.5515 25.997 33.9718 27.6723 30.0656 27.6723C26.1594 27.6723 22.5798 25.997 20.4876 23.1737L7.51127 5.78914C6.72559 4.74294 5.42949 4.08868 4 4" stroke="#E80F81" stroke-width="2" stroke-miterlimit="10"/>
<path d="M20.4876 22.1737C22.5798 24.997 26.1594 26.6724 30.0656 26.6724C33.9719 26.6724 37.5515 24.997 39.6437 22.184L52.62 4.79949C53.4666 3.67224 62 -1.69277e-05 52.62 0L28.5 2.62261e-05L0 1.5C1.42949 1.58868 6.72559 3.74296 7.51127 4.78916L20.4876 22.1737Z" fill="#212121"/>
</svg>
