<svg xmlns="http://www.w3.org/2000/svg" xmlns:xlink="http://www.w3.org/1999/xlink" width="65.332" height="64.955" viewBox="0 0 65.332 64.955">
  <defs>
    <linearGradient id="linear-gradient" y1="0.5" x2="1" y2="0.5" gradientUnits="objectBoundingBox">
      <stop offset="0" stop-color="#f14b55"/>
      <stop offset="0.487" stop-color="#6442d6"/>
      <stop offset="1" stop-color="#f74c51"/>
    </linearGradient>
  </defs>
  <path id="Path_5" data-name="Path 5" d="M-6.68-13.174l.093.093.186.186.093.093a.823.823,0,0,1,.371.093l.186.093a2.014,2.014,0,0,1,.742.371h.742a1.2,1.2,0,0,0,.928,0h.371a4.124,4.124,0,0,0,1.3-.557l.186-.186a6.546,6.546,0,0,0,.649-.464,1.079,1.079,0,0,0,.186-.278l.093-.186L34.883-70.693a4.076,4.076,0,0,0,.557-3.154,4.065,4.065,0,0,0-1.763-2.6A3.812,3.812,0,0,0,30.615-77a4.181,4.181,0,0,0-2.6,1.67L-4.824-22.822l-18-17.627a4.433,4.433,0,0,0-2.969-1.113,3.793,3.793,0,0,0-2.876,1.3A4.02,4.02,0,0,0-29.78-37.2a3.9,3.9,0,0,0,1.392,2.876Z" transform="translate(29.787 77.108)" fill="url(#linear-gradient)"/>
</svg>
