<svg xmlns="http://www.w3.org/2000/svg" xmlns:xlink="http://www.w3.org/1999/xlink" width="58.625" height="67" viewBox="0 0 58.625 67">
  <defs>
    <linearGradient id="linear-gradient" x1="0.099" y1="0.594" x2="1" y2="0.594" gradientUnits="objectBoundingBox">
      <stop offset="0" stop-color="#fc4c4c"/>
      <stop offset="0.473" stop-color="#6c43cf"/>
      <stop offset="1" stop-color="#fc4c4c"/>
    </linearGradient>
  </defs>
  <path id="Path_7" data-name="Path 7" d="M48.287-56.6A20.056,20.056,0,0,0,33.5-62.812,20.056,20.056,0,0,0,18.713-56.6a20.531,20.531,0,0,0-6.15,14.983v3.926H8.375a4.024,4.024,0,0,0-2.944,1.243A4.024,4.024,0,0,0,4.188-33.5V0A4.024,4.024,0,0,0,5.431,2.944,4.024,4.024,0,0,0,8.375,4.188h50.25a4.024,4.024,0,0,0,2.944-1.243A4.024,4.024,0,0,0,62.813,0V-33.5a4.024,4.024,0,0,0-1.243-2.944,4.024,4.024,0,0,0-2.944-1.243H54.438v-3.926A20.531,20.531,0,0,0,48.287-56.6ZM16.75-41.613a16.574,16.574,0,0,1,4.907-11.974A15.93,15.93,0,0,1,33.5-58.625a15.93,15.93,0,0,1,11.843,5.038A16.574,16.574,0,0,1,50.25-41.613v3.926H16.75ZM58.625,0H8.375V-33.5h50.25ZM39.454-10.8a8.093,8.093,0,0,0,2.421-5.954A8.093,8.093,0,0,0,39.454-22.7,8.093,8.093,0,0,0,33.5-25.125,8.093,8.093,0,0,0,27.546-22.7a8.093,8.093,0,0,0-2.421,5.954A8.093,8.093,0,0,0,27.546-10.8,8.093,8.093,0,0,0,33.5-8.375,8.093,8.093,0,0,0,39.454-10.8Zm-3.01-3.01A4.024,4.024,0,0,1,33.5-12.562a4.024,4.024,0,0,1-2.944-1.243,4.024,4.024,0,0,1-1.243-2.944,4.024,4.024,0,0,1,1.243-2.944A4.024,4.024,0,0,1,33.5-20.937a4.024,4.024,0,0,1,2.944,1.243,4.024,4.024,0,0,1,1.243,2.944A4.024,4.024,0,0,1,36.444-13.806Z" transform="translate(-4.188 62.813)" fill="url(#linear-gradient)"/>
</svg>
