<svg xmlns="http://www.w3.org/2000/svg" xmlns:xlink="http://www.w3.org/1999/xlink" width="34.375" height="37.5" viewBox="0 0 34.375 37.5">
  <defs>
    <linearGradient id="linear-gradient" x1="0.096" y1="0.5" x2="1" y2="0.5" gradientUnits="objectBoundingBox">
      <stop offset="0" stop-color="#fc4c4c"/>
      <stop offset="0.493" stop-color="#4a40ed"/>
      <stop offset="1" stop-color="#fc4c4c"/>
    </linearGradient>
  </defs>
  <path id="Path_14" data-name="Path 14" d="M-9.375-34.375v-4.687a1.521,1.521,0,0,0-.439-1.123,1.521,1.521,0,0,0-1.123-.439,1.521,1.521,0,0,0-1.123.439,1.521,1.521,0,0,0-.439,1.123v4.688a3,3,0,0,0-2.2.928,3,3,0,0,0-.928,2.2v3.125a3,3,0,0,0,.928,2.2A3,3,0,0,0-12.5-25V-4.687a1.521,1.521,0,0,0,.439,1.123,1.521,1.521,0,0,0,1.123.439,1.521,1.521,0,0,0,1.123-.439,1.521,1.521,0,0,0,.439-1.123V-25a3,3,0,0,0,2.2-.928,3,3,0,0,0,.928-2.2V-31.25a3,3,0,0,0-.928-2.2A3,3,0,0,0-9.375-34.375ZM-12.5-31.25h3.125v3.125H-12.5ZM3.125-18.75V-39.062a1.521,1.521,0,0,0-.439-1.123,1.521,1.521,0,0,0-1.123-.439,1.521,1.521,0,0,0-1.123.439A1.521,1.521,0,0,0,0-39.062V-18.75a3,3,0,0,0-2.2.928,3,3,0,0,0-.928,2.2V-12.5A3,3,0,0,0-2.2-10.3,3,3,0,0,0,0-9.375v4.688A1.521,1.521,0,0,0,.439-3.564a1.521,1.521,0,0,0,1.123.439,1.521,1.521,0,0,0,1.123-.439,1.521,1.521,0,0,0,.439-1.123V-9.375a3,3,0,0,0,2.2-.928,3,3,0,0,0,.928-2.2v-3.125a3,3,0,0,0-.928-2.2A3,3,0,0,0,3.125-18.75ZM0-15.625H3.125V-12.5H0Zm15.625-12.5V-39.062a1.521,1.521,0,0,0-.439-1.123,1.521,1.521,0,0,0-1.123-.439,1.521,1.521,0,0,0-1.123.439,1.521,1.521,0,0,0-.439,1.123v10.938a3,3,0,0,0-2.2.928A3,3,0,0,0,9.375-25v3.125a3,3,0,0,0,.928,2.2,3,3,0,0,0,2.2.928V-4.687a1.521,1.521,0,0,0,.439,1.123,1.521,1.521,0,0,0,1.123.439,1.521,1.521,0,0,0,1.123-.439,1.521,1.521,0,0,0,.439-1.123V-18.75a3,3,0,0,0,2.2-.928,3,3,0,0,0,.928-2.2V-25a3,3,0,0,0-.928-2.2A3,3,0,0,0,15.625-28.125ZM12.5-25h3.125v3.125H12.5Z" transform="translate(15.625 40.625)" fill="url(#linear-gradient)"/>
</svg>
