<svg xmlns="http://www.w3.org/2000/svg" xmlns:xlink="http://www.w3.org/1999/xlink" width="46.875" height="46.875" viewBox="0 0 46.875 46.875">
  <defs>
    <linearGradient id="linear-gradient" y1="0.5" x2="1" y2="0.5" gradientUnits="objectBoundingBox">
      <stop offset="0" stop-color="#fc4c4c"/>
      <stop offset="0.5" stop-color="#4a40ed"/>
      <stop offset="1" stop-color="#fc4c4c"/>
    </linearGradient>
  </defs>
  <path id="Path_11" data-name="Path 11" d="M21.875-43.75H-18.75a3,3,0,0,0-2.2.928,3,3,0,0,0-.928,2.2V0a3,3,0,0,0,.928,2.2,3,3,0,0,0,2.2.928H21.875a3,3,0,0,0,2.2-.928A3,3,0,0,0,25,0V-40.625a3,3,0,0,0-.928-2.2A3,3,0,0,0,21.875-43.75Zm0,43.75H-18.75V-40.625H21.875ZM-10.937-18.75h25a1.521,1.521,0,0,0,1.123-.439,1.521,1.521,0,0,0,.439-1.123,1.521,1.521,0,0,0-.439-1.123,1.521,1.521,0,0,0-1.123-.439h-25a1.521,1.521,0,0,0-1.123.439,1.521,1.521,0,0,0-.439,1.123,1.521,1.521,0,0,0,.439,1.123A1.521,1.521,0,0,0-10.937-18.75Zm0-9.375h25a1.521,1.521,0,0,0,1.123-.439,1.521,1.521,0,0,0,.439-1.123,1.521,1.521,0,0,0-.439-1.123,1.521,1.521,0,0,0-1.123-.439h-25a1.521,1.521,0,0,0-1.123.439,1.521,1.521,0,0,0-.439,1.123,1.521,1.521,0,0,0,.439,1.123A1.521,1.521,0,0,0-10.937-28.125Zm0,18.75h25a1.521,1.521,0,0,0,1.123-.439,1.521,1.521,0,0,0,.439-1.123,1.521,1.521,0,0,0-.439-1.123,1.521,1.521,0,0,0-1.123-.439h-25a1.521,1.521,0,0,0-1.123.439,1.521,1.521,0,0,0-.439,1.123,1.521,1.521,0,0,0,.439,1.123A1.521,1.521,0,0,0-10.937-9.375Z" transform="translate(21.875 43.75)" fill="url(#linear-gradient)"/>
</svg>
