<svg xmlns="http://www.w3.org/2000/svg" xmlns:xlink="http://www.w3.org/1999/xlink" width="43.75" height="50" viewBox="0 0 43.75 50">
  <defs>
    <linearGradient id="linear-gradient" y1="0.5" x2="1" y2="0.5" gradientUnits="objectBoundingBox">
      <stop offset="0" stop-color="#fc4c4c"/>
      <stop offset="0.508" stop-color="#4a40ed"/>
      <stop offset="1" stop-color="#fc4c4c"/>
    </linearGradient>
  </defs>
  <path id="Path_13" data-name="Path 13" d="M-18.75-3.125h3.125V0A3,3,0,0,0-14.7,2.2a3,3,0,0,0,2.2.928H18.75a3,3,0,0,0,2.2-.928A3,3,0,0,0,21.875,0V-37.5a3,3,0,0,0-.928-2.2,3,3,0,0,0-2.2-.928H15.625V-43.75a3,3,0,0,0-.928-2.2,3,3,0,0,0-2.2-.928H-18.75a3,3,0,0,0-2.2.928,3,3,0,0,0-.928,2.2v37.5a3,3,0,0,0,.928,2.2A3,3,0,0,0-18.75-3.125ZM12.5-6.25H-18.75v-37.5H12.5ZM18.75-37.5V0H-12.5V-3.125h25a3,3,0,0,0,2.2-.928,3,3,0,0,0,.928-2.2V-37.5Zm-27.686.439a1.521,1.521,0,0,0-.439,1.123,1.521,1.521,0,0,0,.439,1.123,1.521,1.521,0,0,0,1.123.439H7.813a1.521,1.521,0,0,0,1.123-.439,1.521,1.521,0,0,0,.439-1.123,1.521,1.521,0,0,0-.439-1.123A1.521,1.521,0,0,0,7.813-37.5H-7.812A1.521,1.521,0,0,0-8.936-37.061ZM-14.062-25H7.813a1.521,1.521,0,0,0,1.123-.439,1.521,1.521,0,0,0,.439-1.123,1.521,1.521,0,0,0-.439-1.123,1.521,1.521,0,0,0-1.123-.439H-14.062a1.521,1.521,0,0,0-1.123.439,1.521,1.521,0,0,0-.439,1.123,1.521,1.521,0,0,0,.439,1.123A1.521,1.521,0,0,0-14.062-25Zm0,6.25H7.813a1.521,1.521,0,0,0,1.123-.439,1.521,1.521,0,0,0,.439-1.123,1.521,1.521,0,0,0-.439-1.123,1.521,1.521,0,0,0-1.123-.439H-14.062a1.521,1.521,0,0,0-1.123.439,1.521,1.521,0,0,0-.439,1.123,1.521,1.521,0,0,0,.439,1.123A1.521,1.521,0,0,0-14.062-18.75Zm0,6.25H7.813a1.521,1.521,0,0,0,1.123-.439,1.521,1.521,0,0,0,.439-1.123,1.521,1.521,0,0,0-.439-1.123,1.521,1.521,0,0,0-1.123-.439H-14.062a1.521,1.521,0,0,0-1.123.439,1.521,1.521,0,0,0-.439,1.123,1.521,1.521,0,0,0,.439,1.123A1.521,1.521,0,0,0-14.062-12.5Z" transform="translate(21.875 46.875)" fill="url(#linear-gradient)"/>
</svg>
