<svg xmlns="http://www.w3.org/2000/svg" xmlns:xlink="http://www.w3.org/1999/xlink" width="50" height="50" viewBox="0 0 50 50">
  <defs>
    <linearGradient id="linear-gradient" y1="0.5" x2="1" y2="0.5" gradientUnits="objectBoundingBox">
      <stop offset="0" stop-color="#fc4c4c"/>
      <stop offset="0.533" stop-color="#4a40ed"/>
      <stop offset="1" stop-color="#fc4c4c"/>
    </linearGradient>
  </defs>
  <path id="Path_12" data-name="Path 12" d="M17.676-39.551A24.086,24.086,0,0,0,0-46.875a24.086,24.086,0,0,0-17.676,7.324A24.086,24.086,0,0,0-25-21.875,24.086,24.086,0,0,0-17.676-4.2,24.086,24.086,0,0,0,0,3.125,24.086,24.086,0,0,0,17.676-4.2,24.086,24.086,0,0,0,25-21.875,24.086,24.086,0,0,0,17.676-39.551ZM15.479-6.4A21.084,21.084,0,0,1,0,0,21.084,21.084,0,0,1-15.479-6.4a21.084,21.084,0,0,1-6.4-15.479,21.084,21.084,0,0,1,6.4-15.479A21.084,21.084,0,0,1,0-43.75a21.084,21.084,0,0,1,15.479,6.4,21.084,21.084,0,0,1,6.4,15.479A21.084,21.084,0,0,1,15.479-6.4ZM6.25-31.25H-6.25a3,3,0,0,0-2.2.928,3,3,0,0,0-.928,2.2v12.5a3,3,0,0,0,.928,2.2,3,3,0,0,0,2.2.928H6.25a3,3,0,0,0,2.2-.928,3,3,0,0,0,.928-2.2v-12.5a3,3,0,0,0-.928-2.2A3,3,0,0,0,6.25-31.25Z" transform="translate(25 46.875)" fill="url(#linear-gradient)"/>
</svg>
